<?xml version="1.0" standalone="no"?>
<svg viewBox="0 0 200 200" xmlns="http://www.w3.org/2000/svg">
  <path fill="#FF0066" d="M37.5,-55.2C42.7,-47.8,36.9,-29,43.7,-13C50.4,2.9,69.7,15.9,71.9,27.8C74.1,39.6,59.2,50.4,44.4,52.5C29.6,54.7,14.8,48.3,-0.3,48.8C-15.5,49.3,-31,56.6,-42.7,53.4C-54.3,50.2,-62.2,36.5,-67.5,21.6C-72.9,6.7,-75.7,-9.4,-72.8,-25.3C-69.9,-41.2,-61.3,-56.9,-48.3,-61.7C-35.2,-66.5,-17.6,-60.3,-0.7,-59.3C16.1,-58.4,32.3,-62.5,37.5,-55.2Z" transform="translate(100 100)" />
</svg>
